<?xml version="1.0" standalone="no"?>
<!DOCTYPE svg PUBLIC "-//W3C//DTD SVG 20010904//EN"
 "http://www.w3.org/TR/2001/REC-SVG-20010904/DTD/svg10.dtd">
<svg version="1.0" xmlns="http://www.w3.org/2000/svg"
 width="128.000000pt" height="128.000000pt" viewBox="0 0 128.000000 128.000000"
 preserveAspectRatio="xMidYMid meet">
<metadata>
Created by potrace 1.14, written by Peter Selinger 2001-2017
</metadata>
<g transform="translate(0.000000,128.000000) scale(0.100000,-0.100000)"
fill="#000000" stroke="none">
<path d="M599 1043 c-12 -16 -12 -17 2 -6 14 12 16 6 16 -52 0 -72 6 -66 -89
-85 -61 -12 -62 -13 -73 -90 -5 -33 -1 -61 13 -101 12 -34 16 -62 11 -74 -12
-32 -10 -83 5 -120 13 -31 13 -35 -5 -51 -18 -16 -20 -15 -53 57 -37 83 -48
129 -47 207 0 57 28 131 64 172 26 29 24 28 -45 -32 -264 -228 -368 -320 -368
-325 0 -3 8 0 18 9 50 42 129 48 209 16 70 -28 193 -108 193 -125 0 -7 -20
-24 -46 -39 -35 -20 -54 -25 -83 -21 -47 6 -312 138 -304 151 3 5 1 6 -5 2
-21 -13 -13 -22 61 -65 166 -97 170 -100 156 -117 -10 -12 1 -26 57 -79 l69
-64 428 -1 428 0 -1 23 c-4 47 0 67 15 67 29 0 45 44 44 117 -1 38 1 79 5 90
4 13 0 25 -11 34 -16 13 -17 12 -5 -3 12 -14 6 -17 -60 -27 -40 -7 -80 -16
-88 -21 -28 -18 -41 -23 -48 -16 -11 11 -5 148 7 180 10 25 9 32 -8 50 -26 27
-51 88 -51 122 0 23 2 25 17 13 15 -13 15 -12 2 8 -11 18 -11 29 -2 54 l12 32
-39 -7 c-22 -3 -57 -9 -78 -12 l-37 -6 -1 56 c-1 38 2 53 10 49 6 -4 5 1 -3
10 -23 28 -26 20 -23 -52 l4 -70 -39 -10 c-21 -5 -49 -13 -63 -16 -20 -5 -25
-13 -28 -43 -2 -36 -21 -70 -23 -42 0 8 -2 22 -3 30 -2 8 5 39 14 68 l18 53
-42 -6 c-22 -4 -48 -9 -57 -11 -14 -4 -17 5 -18 58 0 39 4 65 12 70 8 5 5 8
-9 8 -12 0 -28 -8 -35 -17z m76 -133 c-11 -5 -27 -9 -35 -9 -9 0 -8 4 5 9 11
5 27 9 35 9 9 0 8 -4 -5 -9z m-65 -10 c0 -11 -63 -24 -82 -17 -7 2 7 9 32 15
25 5 46 10 48 11 1 1 2 -3 2 -9z m350 1 c-20 -12 -87 -25 -78 -16 4 4 22 11
40 15 45 11 56 11 38 1z m-95 -21 c-3 -5 -16 -10 -28 -9 -20 1 -20 2 3 9 14 4
26 8 28 9 2 1 0 -3 -3 -9z m-255 -189 c-37 -11 -103 -21 -97 -14 8 8 68 21 97
21 l25 0 -25 -7z m55 -11 c-3 -5 -11 -10 -16 -10 -6 0 -7 5 -4 10 3 6 11 10
16 10 6 0 7 -4 4 -10z m-45 -10 c0 -5 -6 -10 -12 -11 -7 0 -23 -2 -35 -3 -33
-4 -28 12 5 17 15 2 30 5 35 6 4 0 7 -3 7 -9z m405 1 c17 -7 15 -9 -15 -19
-19 -6 -52 -14 -72 -18 -59 -10 -45 12 15 24 l52 11 -47 -3 c-27 -2 -48 1 -48
6 0 10 88 9 115 -1z m-155 -11 c0 -5 -5 -10 -11 -10 -5 0 -7 5 -4 10 3 6 8 10
11 10 2 0 4 -4 4 -10z m-107 -50 c-7 -28 -13 -25 -13 6 0 14 4 23 9 20 5 -3 7
-15 4 -26z m105 23 c-10 -2 -26 -2 -35 0 -10 3 -2 5 17 5 19 0 27 -2 18 -5z
m-241 -157 c0 -8 -6 -12 -14 -9 -7 3 -10 9 -7 14 8 14 21 11 21 -5z m86 0 c-4
-5 1 -7 10 -3 12 4 20 -6 33 -42 l17 -48 59 4 58 5 0 -42 0 -43 -46 6 c-50 5
-85 32 -104 78 -7 15 -21 31 -33 35 -11 3 -30 15 -41 25 -20 19 -20 19 10 20
l29 1 -30 8 c-29 8 -29 8 7 7 21 -1 34 -5 31 -11z m-126 -2 c-3 -3 -12 -4 -19
-1 -8 3 -5 6 6 6 11 1 17 -2 13 -5z m303 -64 c0 -5 -15 -10 -32 -9 -31 1 -32
1 -8 9 35 11 40 11 40 0z m99 6 c-10 -9 -79 -14 -79 -5 0 5 19 9 42 9 23 0 39
-2 37 -4z m31 -34 c-1 -34 -48 -72 -89 -72 -18 0 -21 6 -21 39 0 43 2 44 72
48 30 2 38 -1 38 -15z"/>
<path d="M830 1040 c0 -5 5 -10 11 -10 5 0 7 5 4 10 -3 6 -8 10 -11 10 -2 0
-4 -4 -4 -10z"/>
<path d="M1150 676 c0 -2 8 -10 18 -17 15 -13 16 -12 3 4 -13 16 -21 21 -21
13z"/>
<path d="M1220 586 c0 -2 8 -10 18 -17 15 -13 16 -12 3 4 -13 16 -21 21 -21
13z"/>
</g>
</svg>
